<svg width="23" height="23" viewBox="0 0 23 23" fill="none" xmlns="http://www.w3.org/2000/svg">
<path d="M4.57039 4.56836C5.88691 3.25064 7.67027 2.50573 9.53292 2.4955C10.9248 2.4943 12.2859 2.90592 13.4438 3.67831C14.6019 4.45077 15.5048 5.54934 16.0384 6.83506C16.572 8.12078 16.7123 9.53587 16.4415 10.9013C16.1707 12.2668 15.501 13.5212 14.5171 14.506C13.5333 15.4908 12.2794 16.1616 10.9142 16.4337C9.549 16.7057 8.13378 16.5667 6.84757 16.0343C5.56136 15.5019 4.46196 14.6 3.68845 13.4426C2.915 12.2853 2.50213 10.9247 2.50207 9.53277C2.5106 7.67011 3.25388 5.88608 4.57039 4.56836ZM9.53244 0.85C7.81521 0.85 6.13655 1.35922 4.70874 2.31325C3.28092 3.26729 2.16807 4.6233 1.51091 6.20981C0.853762 7.79632 0.681821 9.54206 1.01683 11.2263C1.35185 12.9105 2.17877 14.4576 3.39303 15.6718C4.60729 16.8861 6.15435 17.713 7.83858 18.048C9.52281 18.383 11.2686 18.2111 12.8551 17.554C14.4416 16.8968 15.7976 15.784 16.7516 14.3561C17.7057 12.9283 18.2149 11.2497 18.2149 9.53243C18.2149 7.22971 17.3001 5.0213 15.6718 3.39303C14.0436 1.76475 11.8352 0.85 9.53244 0.85Z" fill="white" stroke="white" stroke-width="0.3"/>
<path d="M21.8926 20.7749L21.8926 20.7748L17.0554 15.9048L16.9497 15.7984L16.8433 15.9041L15.9113 16.8295L15.8048 16.9352L15.9105 17.0416L20.7478 21.9117C20.8224 21.9869 20.9111 22.0466 21.0089 22.0875C21.1066 22.1284 21.2114 22.1496 21.3174 22.15C21.4233 22.1503 21.5283 22.1299 21.6263 22.0897C21.7243 22.0495 21.8134 21.9904 21.8886 21.9157C21.9638 21.8411 22.0235 21.7523 22.0644 21.6546C22.1053 21.5569 22.1265 21.4521 22.1269 21.3461C22.1273 21.2402 22.1068 21.1352 22.0666 21.0372C22.0264 20.9392 21.9673 20.85 21.8926 20.7749Z" fill="white" stroke="white" stroke-width="0.3"/>
</svg>
