<svg width="24" height="24" viewBox="0 0 24 24" fill="none" xmlns="http://www.w3.org/2000/svg">
<path d="M7 9V15M12 6V2V6ZM12 6C14.498 6.044 16.006 6 17 6C19 6 21 6.5 22 10C23 13.5 23 15.5 23 18C23 20.5 21 21 19 21C17 21 15.946 17 12 17C8.054 17 7 21 5 21C3 21 1 20.5 1 18C1 15.5 1 13.5 2 10C3 6.5 5 6 7 6C7.994 6 9.502 6.044 12 6ZM18 15C18.2652 15 18.5196 14.8946 18.7071 14.7071C18.8946 14.5196 19 14.2652 19 14C19 13.7348 18.8946 13.4804 18.7071 13.2929C18.5196 13.1054 18.2652 13 18 13C17.7348 13 17.4804 13.1054 17.2929 13.2929C17.1054 13.4804 17 13.7348 17 14C17 14.2652 17.1054 14.5196 17.2929 14.7071C17.4804 14.8946 17.7348 15 18 15ZM14 12C14.2652 12 14.5196 11.8946 14.7071 11.7071C14.8946 11.5196 15 11.2652 15 11C15 10.7348 14.8946 10.4804 14.7071 10.2929C14.5196 10.1054 14.2652 10 14 10C13.7348 10 13.4804 10.1054 13.2929 10.2929C13.1054 10.4804 13 10.7348 13 11C13 11.2652 13.1054 11.5196 13.2929 11.7071C13.4804 11.8946 13.7348 12 14 12V12ZM4 12H10H4Z" stroke="#B9B9B9" stroke-width="2"/>
</svg>
