<svg width="48" height="48" viewBox="0 0 48 48" fill="none" xmlns="http://www.w3.org/2000/svg">
<path d="M40.9452 40.9345C45.4714 36.438 48.0088 30.3476 48 24.001C47.9951 23.6093 47.8347 23.2351 47.553 22.9599C47.2713 22.6844 46.8915 22.5301 46.4957 22.5301C46.0997 22.5301 45.7199 22.6844 45.4382 22.9599C45.1566 23.2351 44.9961 23.6093 44.9913 24.001C44.9976 29.5628 42.7729 34.9001 38.8059 38.8399C36.8801 40.7965 34.5778 42.3517 32.0348 43.4136C29.4919 44.4754 26.7598 45.0224 23.9998 45.0224C21.2397 45.0224 18.5077 44.4754 15.9647 43.4136C13.4218 42.3517 11.1195 40.7965 9.1937 38.8399C5.23202 34.8962 3.00835 29.5611 3.00835 24.0001C3.00835 18.439 5.23202 13.1039 9.1937 9.16014C11.1083 7.21854 13.3933 5.67239 15.9162 4.61131C18.4392 3.55025 21.1498 2.99537 23.8911 2.97886C24.4764 2.997 25.0314 3.24074 25.4377 3.65808C25.8441 4.07539 26.0696 4.63332 26.066 5.21284C26.0627 5.79236 25.8307 6.34763 25.4195 6.76028C25.0083 7.1729 24.4505 7.41021 23.865 7.42162C23.8108 7.42172 23.7565 7.4247 23.7028 7.43052C19.5322 7.56344 15.575 9.2868 12.6586 12.2402C9.5787 15.3086 7.85012 19.4579 7.85012 23.7828C7.85012 28.1079 9.5787 32.2571 12.6586 35.3255C14.1633 36.8508 15.961 38.0629 17.946 38.8905C19.931 39.718 22.0633 40.1443 24.2171 40.1443C26.371 40.1443 28.5033 39.718 30.4883 38.8905C32.4732 38.0629 34.2709 36.8508 35.7756 35.3255C38.8603 32.2603 40.5896 28.1089 40.5834 23.7828C40.5898 23.1015 40.4596 22.4254 40.2006 21.794C39.9413 21.1628 39.5584 20.5885 39.0737 20.1044C38.589 19.6204 38.0122 19.2361 37.3767 18.9739C36.7411 18.7117 36.0595 18.5767 35.3708 18.5767C34.6821 18.5767 34.0005 18.7117 33.3649 18.9739C32.7294 19.2361 32.1526 19.6204 31.6679 20.1044C31.1832 20.5885 30.8003 21.1628 30.541 21.794C30.282 22.4254 30.1518 23.1015 30.1582 23.7828C30.1582 23.8263 30.161 23.8671 30.1645 23.9089C30.161 23.9506 30.1582 23.9923 30.1582 24.0349C30.168 25.2229 29.821 26.3869 29.161 27.3796C28.5013 28.372 27.5584 29.1481 26.4522 29.6096C25.346 30.0708 24.126 30.1966 22.9475 29.9709C21.7689 29.7449 20.6847 29.1779 19.8323 28.3412C18.98 27.5045 18.398 26.4363 18.1601 25.2717C17.9223 24.1072 18.0394 22.899 18.4965 21.8006C18.9536 20.7019 19.7302 19.7625 20.7276 19.1014C21.7251 18.4403 22.8986 18.0874 24.099 18.0874C24.2981 18.0898 24.4957 18.053 24.6803 17.9793C24.865 17.9055 25.0329 17.7962 25.1745 17.6577C25.3161 17.5193 25.4287 17.3543 25.5054 17.1725C25.5822 16.9907 25.6217 16.7956 25.6217 16.5986C25.6217 16.4016 25.5822 16.2065 25.5054 16.0247C25.4287 15.8428 25.3161 15.6779 25.1745 15.5394C25.0329 15.401 24.865 15.2917 24.6803 15.2179C24.4957 15.1442 24.2981 15.1074 24.099 15.1098C22.3175 15.1196 20.5787 15.6514 19.1022 16.638C17.6257 17.6247 16.4775 19.022 15.8026 20.6538C15.1276 22.2855 14.9562 24.0785 15.3098 25.8066C15.6635 27.5347 16.5263 29.1203 17.7896 30.3637C19.0529 31.6068 20.66 32.452 22.4082 32.7924C24.1561 33.1327 25.967 32.953 27.612 32.276C29.257 31.599 30.6627 30.4551 31.6514 28.9884C32.6402 27.5217 33.1678 25.7979 33.1678 24.0349C33.1678 23.9914 33.1649 23.9506 33.1614 23.9089C33.1649 23.8671 33.1678 23.8254 33.1678 23.7828C33.1618 23.4928 33.2145 23.2045 33.3228 22.9347C33.4308 22.665 33.5924 22.4193 33.7974 22.2123C34.0027 22.005 34.2477 21.8403 34.5179 21.728C34.7882 21.6157 35.0786 21.5578 35.3717 21.5578C35.6648 21.5578 35.9552 21.6157 36.2254 21.728C36.4957 21.8403 36.7407 22.005 36.946 22.2123C37.151 22.4193 37.3126 22.665 37.4206 22.9347C37.5288 23.2045 37.5815 23.4928 37.5756 23.7828C37.5795 27.3246 36.1629 30.723 33.6367 33.2317C32.4119 34.4771 30.9474 35.4667 29.3296 36.1426C27.7119 36.8185 25.9736 37.1665 24.2176 37.1665C22.4617 37.1665 20.7235 36.8185 19.1057 36.1426C17.488 35.4667 16.0235 34.4771 14.7986 33.2317C12.2759 30.7208 10.8598 27.3238 10.8598 23.7828C10.8598 20.2419 12.2759 16.8449 14.7986 14.334C16.0244 13.0902 17.489 12.1015 19.1063 11.4258C20.7237 10.7501 22.4611 10.401 24.2167 10.3992C24.3517 10.3988 24.486 10.3804 24.6162 10.3444C25.897 10.15 27.0599 9.49454 27.8823 8.5037C28.7046 7.51284 29.1283 6.25641 29.0721 4.97542C29.0159 3.6944 28.4836 2.47905 27.5775 1.56249C26.6715 0.645923 25.4555 0.0926855 24.1627 0.00890775C24.1087 0.00308627 24.0542 0.00011278 23.9998 0C23.9695 0 23.9394 0 23.9091 0C23.8942 0 23.8797 0 23.8652 0C23.8507 0 23.8358 0.00173689 23.8213 0.00217141C20.6938 0.0265123 17.6021 0.663274 14.7245 1.87574C11.8468 3.0882 9.24018 4.8524 7.05477 7.06661C2.53609 11.5678 0 17.6551 0 24.0001C0 30.345 2.53609 36.4322 7.05477 40.9334C9.26037 43.1701 11.8958 44.9477 14.806 46.1611C17.7161 47.3747 20.8422 48 24.0002 48C27.1582 48 30.2842 47.3747 33.1946 46.1611C36.1047 44.9477 38.74 43.1701 40.9457 40.9334L40.9452 40.9345Z" fill="url(#paint0_linear_1_298)"/>
<defs>
<linearGradient id="paint0_linear_1_298" x1="6.96" y1="40.848" x2="37.1519" y2="10.992" gradientUnits="userSpaceOnUse">
<stop stop-color="white"/>
<stop offset="0.99" stop-color="white"/>
</linearGradient>
</defs>
</svg>
