<svg width="35" height="35" viewBox="0 0 35 35" fill="none" xmlns="http://www.w3.org/2000/svg">
<path d="M22.4999 13.575V15.2417C22.4999 17.0833 19.3416 17.5 17.4999 17.5C15.6582 17.5 12.4999 16.8417 12.4999 15V13.3333M10.7099 7.505L24.1999 7.5C24.6189 7.49991 25.0226 7.65765 25.3305 7.94181C25.6385 8.22596 25.8281 8.61567 25.8616 9.03333L27.3516 27.365C27.3702 27.5945 27.3411 27.8254 27.2661 28.0432C27.191 28.2609 27.0717 28.4607 26.9155 28.6299C26.7594 28.7992 26.5699 28.9343 26.359 29.0267C26.148 29.1191 25.9202 29.1667 25.6899 29.1667H9.29992C9.07024 29.1667 8.84304 29.1192 8.63258 29.0272C8.42211 28.9352 8.23293 28.8008 8.07691 28.6322C7.92088 28.4637 7.80137 28.2647 7.72589 28.0478C7.6504 27.8308 7.62056 27.6007 7.63825 27.3717L9.04825 9.04333C9.08057 8.62478 9.26966 8.23383 9.57772 7.94864C9.88578 7.66345 10.2901 7.50501 10.7099 7.505V7.505Z" stroke="white" stroke-width="2" stroke-linecap="round" stroke-linejoin="round"/>
</svg>
